<svg width="40" height="40" viewBox="0 0 40 40" fill="none" xmlns="http://www.w3.org/2000/svg">
<mask id="mask0_2022_363" style="mask-type:alpha" maskUnits="userSpaceOnUse" x="0" y="0" width="40" height="40">
<rect width="40" height="40" fill="#D9D9D9"/>
</mask>
<g mask="url(#mask0_2022_363)">
<path d="M18.666 29.1948V11.8614C17.453 11.0836 16.1463 10.4864 14.746 10.0698C13.3457 9.65309 11.9302 9.44475 10.4993 9.44475C9.46241 9.44475 8.44157 9.56503 7.43685 9.80559C6.43213 10.0464 5.43449 10.3613 4.44393 10.7502V28.3056C5.34199 27.9353 6.31643 27.6623 7.36727 27.4864C8.41838 27.3103 9.46241 27.2223 10.4993 27.2223C11.9266 27.2223 13.3157 27.3867 14.6668 27.7156C16.0182 28.0442 17.3513 28.5373 18.666 29.1948ZM1.66602 29.7781V10.2223C1.66602 9.84281 1.75629 9.491 1.93685 9.16684C2.1174 8.84267 2.38824 8.59267 2.74935 8.41684C3.95296 7.82434 5.20657 7.38448 6.51018 7.09725C7.81379 6.81031 9.14352 6.66684 10.4993 6.66684C12.5735 6.66684 14.3652 6.92614 15.8743 7.44475C17.3835 7.96309 18.9714 8.73614 20.6381 9.76392C20.8881 9.91225 21.0849 10.1021 21.2285 10.3335C21.3721 10.5649 21.4439 10.8427 21.4439 11.1668V29.1948C22.7773 28.5373 24.0944 28.0442 25.3952 27.7156C26.696 27.3867 28.0641 27.2223 29.4993 27.2223C30.5363 27.2223 31.5895 27.3056 32.6589 27.4723C33.7284 27.6389 34.6937 27.8704 35.5548 28.1668V9.09725C35.5548 8.70392 35.6884 8.37406 35.9556 8.10767C36.2228 7.84156 36.5538 7.7085 36.9485 7.7085C37.3435 7.7085 37.673 7.84156 37.9369 8.10767C38.2007 8.37406 38.3327 8.70392 38.3327 9.09725V29.7781C38.3327 30.5075 38.0341 31.0625 37.4369 31.4431C36.8396 31.8236 36.24 31.8334 35.6381 31.4723C34.6659 31.0278 33.6662 30.676 32.6389 30.4168C31.6114 30.1577 30.5649 30.0281 29.4993 30.0281C28.036 30.0281 26.61 30.2479 25.2214 30.6877C23.8325 31.1274 22.5178 31.7361 21.2773 32.5139C21.092 32.6345 20.8952 32.7202 20.6868 32.771C20.4785 32.8218 20.2678 32.8473 20.0548 32.8473C19.842 32.8473 19.6314 32.8218 19.4231 32.771C19.2148 32.7202 19.018 32.6345 18.8327 32.5139C17.568 31.7306 16.2356 31.1204 14.8356 30.6835C13.4356 30.2466 11.9902 30.0281 10.4993 30.0281C9.43379 30.0281 8.38727 30.1623 7.35977 30.4306C6.33254 30.6992 5.32352 31.0464 4.33268 31.4723C3.71046 31.7778 3.11046 31.7454 2.53268 31.3752C1.9549 31.0049 1.66602 30.4725 1.66602 29.7781ZM25.6106 22.2502V6.29184C25.6106 5.98767 25.6967 5.71281 25.8689 5.46725C26.0412 5.2217 26.2652 5.05211 26.541 4.9585L30.0131 3.79184C30.3464 3.67156 30.6589 3.72003 30.9506 3.93725C31.2423 4.15447 31.3881 4.43475 31.3881 4.77809V20.7918C31.3881 21.096 31.2993 21.3709 31.1218 21.6164C30.9446 21.862 30.7139 22.0316 30.4298 22.1252L26.9577 23.2364C26.6244 23.3567 26.3164 23.3082 26.0339 23.091C25.7517 22.8735 25.6106 22.5932 25.6106 22.2502Z" fill="#1C1B1F"/>
</g>
</svg>
