<svg width="40" height="40" viewBox="0 0 40 40" fill="none" xmlns="http://www.w3.org/2000/svg">
<mask id="mask0_2022_381" style="mask-type:alpha" maskUnits="userSpaceOnUse" x="0" y="0" width="40" height="40">
<rect width="40" height="40" fill="#D9D9D9"/>
</mask>
<g mask="url(#mask0_2022_381)">
<path d="M5.6106 34.4719C5.44393 34.5647 5.2749 34.6133 5.10352 34.6178C4.93213 34.6225 4.76782 34.6016 4.6106 34.5553C4.38838 34.4536 4.23088 34.3078 4.1381 34.1178C4.0456 33.928 4.00393 33.7314 4.0131 33.5278C4.02254 33.1944 4.1499 32.8934 4.39518 32.6248C4.64046 32.3562 4.96213 32.1618 5.36018 32.0415C5.74907 31.7451 6.20282 31.5739 6.72143 31.5278C7.24004 31.4814 7.74477 31.4721 8.2356 31.4998C8.49477 31.4812 8.70074 31.4441 8.85352 31.3886C9.00629 31.333 9.13824 31.2034 9.24935 30.9998C9.36046 30.6018 9.4206 30.1782 9.42977 29.729C9.43921 29.2801 9.51338 28.8612 9.65227 28.4723C9.75393 27.8426 9.9506 27.2823 10.2423 26.7915C10.5339 26.3007 10.9621 25.9118 11.5268 25.6248C11.9157 25.3284 12.3718 25.1572 12.8952 25.1111C13.4182 25.0647 13.9252 25.0554 14.416 25.0832C14.6752 25.0646 14.8835 25.0275 15.041 24.9719C15.1985 24.9164 15.3328 24.7868 15.4439 24.5832C15.555 24.1851 15.6106 23.7615 15.6106 23.3123C15.6106 22.8634 15.68 22.4446 15.8189 22.0557C15.9206 21.4259 16.1173 20.8657 16.4089 20.3748C16.7006 19.884 17.1288 19.4951 17.6935 19.2082C18.0824 18.9118 18.5385 18.7405 19.0618 18.6944C19.5849 18.648 20.0919 18.6387 20.5827 18.6665C20.8419 18.6479 21.0502 18.6108 21.2077 18.5553C21.3652 18.4997 21.4995 18.3701 21.6106 18.1665C21.7217 17.7684 21.7795 17.3448 21.7839 16.8957C21.7887 16.4468 21.8605 16.0279 21.9993 15.639C22.1013 14.9907 22.3027 14.4258 22.6035 13.9444C22.9043 13.4628 23.3371 13.0784 23.9018 12.7915C24.2907 12.4951 24.7469 12.3239 25.2702 12.2778C25.7932 12.2314 26.3002 12.2221 26.791 12.2498C27.0502 12.2312 27.2585 12.1941 27.416 12.1386C27.5735 12.083 27.7078 11.9534 27.8189 11.7498C27.93 11.3518 27.9878 10.9282 27.9923 10.479C27.997 10.0301 28.0688 9.61123 28.2077 9.22234C28.3096 8.57401 28.511 8.00914 28.8118 7.52775C29.1127 7.04609 29.5455 6.66178 30.1102 6.37484C30.4991 6.06012 30.9552 5.88192 31.4785 5.84025C32.0016 5.79859 32.5085 5.79164 32.9993 5.81942C33.3049 5.74525 33.6174 5.72206 33.9369 5.74984C34.2563 5.77762 34.5456 5.76831 34.8048 5.72192C35.0642 5.6572 35.3096 5.70123 35.541 5.854C35.7724 6.00678 35.9206 6.21275 35.9856 6.47192C35.9762 6.80525 35.8488 7.10859 35.6035 7.38192C35.3582 7.65498 35.0366 7.85164 34.6385 7.97192C34.2496 8.28692 33.7935 8.46748 33.2702 8.51359C32.7471 8.55998 32.2402 8.56928 31.7493 8.5415C31.4902 8.56012 31.2818 8.5972 31.1243 8.65275C30.9668 8.70831 30.8325 8.83789 30.7214 9.0415C30.6103 9.43956 30.5525 9.86317 30.5481 10.3123C30.5434 10.7612 30.4716 11.1801 30.3327 11.569C30.2307 12.2173 30.0293 12.7822 29.7285 13.2636C29.4277 13.7453 28.9949 14.1296 28.4302 14.4165C28.0413 14.7129 27.5875 14.8841 27.0689 14.9303C26.5503 14.9766 26.0456 14.9859 25.5548 14.9582C25.2956 14.9768 25.0896 15.0139 24.9368 15.0694C24.7841 15.125 24.6521 15.2546 24.541 15.4582C24.4299 15.8562 24.3698 16.2798 24.3606 16.729C24.3512 17.1779 24.277 17.5968 24.1381 17.9857C24.0364 18.6062 23.8398 19.1641 23.5481 19.6594C23.2564 20.155 22.8282 20.5462 22.2635 20.8332C21.8746 21.1296 21.4209 21.3032 20.9023 21.354C20.3837 21.4048 19.8789 21.4164 19.3881 21.3886C19.1289 21.4072 18.923 21.4466 18.7702 21.5069C18.6174 21.5669 18.4855 21.6989 18.3743 21.9028C18.2632 22.3008 18.2031 22.7197 18.1939 23.1594C18.1845 23.5991 18.1103 24.0135 17.9714 24.4023C17.8698 25.0321 17.6707 25.5923 17.3743 26.0832C17.0782 26.574 16.6477 26.9629 16.0827 27.2498C15.6938 27.5646 15.2355 27.7428 14.7077 27.7844C14.1799 27.8261 13.6706 27.833 13.1798 27.8053C12.9206 27.8239 12.717 27.8633 12.5689 27.9236C12.4206 27.9836 12.2909 28.1155 12.1798 28.3194C12.0687 28.7175 12.0109 29.1364 12.0064 29.5761C12.0017 30.0158 11.9299 30.4301 11.791 30.819C11.6891 31.4673 11.4877 32.0322 11.1868 32.5136C10.886 32.9953 10.4532 33.3796 9.88852 33.6665C9.49963 33.9629 9.04588 34.1365 8.52727 34.1873C8.00865 34.2382 7.50393 34.2497 7.0131 34.2219C6.75393 34.2405 6.50629 34.2544 6.27018 34.2636C6.03407 34.273 5.81421 34.3425 5.6106 34.4719ZM9.99935 18.3332C7.69379 18.3332 5.72852 17.5207 4.10352 15.8957C2.47852 14.2707 1.66602 12.3054 1.66602 9.99984C1.66602 7.6665 2.47852 5.69428 4.10352 4.08317C5.72852 2.47206 7.69379 1.6665 9.99935 1.6665C12.3327 1.6665 14.3049 2.47206 15.916 4.08317C17.5271 5.69428 18.3327 7.6665 18.3327 9.99984C18.3327 12.3054 17.5271 14.2707 15.916 15.8957C14.3049 17.5207 12.3327 18.3332 9.99935 18.3332ZM9.99935 15.5553C11.5641 15.5553 12.8812 15.0136 13.9506 13.9303C15.02 12.8469 15.5548 11.5368 15.5548 9.99984C15.5548 8.43512 15.02 7.11803 13.9506 6.04859C12.8812 4.97914 11.5641 4.44442 9.99935 4.44442C8.46241 4.44442 7.15227 4.97914 6.06893 6.04859C4.9856 7.11803 4.44393 8.43512 4.44393 9.99984C4.44393 11.5368 4.9856 12.8469 6.06893 13.9303C7.15227 15.0136 8.46241 15.5553 9.99935 15.5553ZM26.1106 38.3332C25.342 38.3332 24.6869 38.0623 24.1452 37.5207C23.6035 36.979 23.3327 36.3239 23.3327 35.5553V26.1111C23.3327 25.3425 23.6035 24.6873 24.1452 24.1457C24.6869 23.604 25.342 23.3332 26.1106 23.3332H35.5548C36.3234 23.3332 36.9785 23.604 37.5202 24.1457C38.0619 24.6873 38.3327 25.3425 38.3327 26.1111V35.5553C38.3327 36.3239 38.0619 36.979 37.5202 37.5207C36.9785 38.0623 36.3234 38.3332 35.5548 38.3332H26.1106ZM26.1106 35.5553H35.5548V26.1111H26.1106V35.5553Z" fill="#1C1B1F"/>
</g>
</svg>
