<svg width="40" height="40" viewBox="0 0 40 40" fill="none" xmlns="http://www.w3.org/2000/svg">
<mask id="mask0_2022_393" style="mask-type:alpha" maskUnits="userSpaceOnUse" x="0" y="0" width="40" height="40">
<rect width="40" height="40" fill="#D9D9D9"/>
</mask>
<g mask="url(#mask0_2022_393)">
<path d="M7.77792 35C7.01403 35 6.36 34.7281 5.81583 34.1842C5.27194 33.64 5 32.986 5 32.2221V7.77792C5 7.01403 5.27194 6.36 5.81583 5.81583C6.36 5.27195 7.01403 5 7.77792 5H32.2221C32.986 5 33.64 5.27195 34.1842 5.81583C34.7281 6.36 35 7.01403 35 7.77792V32.2221C35 32.986 34.7281 33.64 34.1842 34.1842C33.64 34.7281 32.986 35 32.2221 35H7.77792ZM7.77792 32.2221H32.2221V11.1112H7.77792V32.2221ZM13.9929 26.3779C12.229 25.1665 10.9443 23.5947 10.1388 21.6625C10.9443 19.73 12.2288 18.1596 13.9921 16.9513C15.7551 15.7429 17.7574 15.1388 19.9988 15.1388C22.2404 15.1388 24.2432 15.7443 26.0071 16.9554C27.771 18.1668 29.0557 19.7386 29.8612 21.6708C29.0557 23.6033 27.7713 25.1738 26.0079 26.3821C24.2449 27.5904 22.2426 28.1946 20.0013 28.1946C17.7596 28.1946 15.7568 27.589 13.9929 26.3779ZM24.3321 24.8313C25.646 24.0707 26.6742 23.0158 27.4167 21.6667C26.6742 20.3175 25.646 19.2626 24.3321 18.5021C23.0182 17.7415 21.5742 17.3612 20 17.3612C18.4258 17.3612 16.9818 17.7415 15.6679 18.5021C14.354 19.2626 13.3258 20.3175 12.5833 21.6667C13.3258 23.0158 14.354 24.0707 15.6679 24.8313C16.9818 25.5918 18.4258 25.9721 20 25.9721C21.5742 25.9721 23.0182 25.5918 24.3321 24.8313ZM21.5763 23.2396C22.0068 22.8071 22.2221 22.2817 22.2221 21.6633C22.2221 21.0453 22.0057 20.521 21.5729 20.0904C21.1404 19.6599 20.615 19.4446 19.9967 19.4446C19.3786 19.4446 18.8543 19.661 18.4238 20.0938C17.9932 20.5263 17.7779 21.0517 17.7779 21.67C17.7779 22.2881 17.9943 22.8124 18.4271 23.2429C18.8596 23.6735 19.385 23.8888 20.0033 23.8888C20.6214 23.8888 21.1457 23.6724 21.5763 23.2396Z" fill="#1C1B1F"/>
</g>
</svg>
