<svg width="40" height="40" viewBox="0 0 40 40" fill="none" xmlns="http://www.w3.org/2000/svg">
<mask id="mask0_2022_375" style="mask-type:alpha" maskUnits="userSpaceOnUse" x="0" y="0" width="40" height="40">
<rect width="40" height="40" fill="#D9D9D9"/>
</mask>
<g mask="url(#mask0_2022_375)">
<path d="M11.6673 29.4585H10.584L10.334 29.7502C10.334 29.8057 10.4173 29.8891 10.584 30.0002H14.6952L14.9452 29.7502C14.9452 29.6668 14.9244 29.5974 14.8827 29.5418C14.8411 29.4863 14.7786 29.4585 14.6952 29.4585H12.5423L14.6952 23.3335H20.8061L22.9173 29.4585H20.8894L20.6394 29.7502C20.6394 29.8057 20.7227 29.8891 20.8894 30.0002H29.4173L29.6673 29.7502C29.6673 29.6668 29.6465 29.5974 29.6048 29.5418C29.5632 29.4863 29.5007 29.4585 29.4173 29.4585H28.3757L21.5144 10.7918C21.4311 10.551 21.2852 10.3589 21.0769 10.2156C20.8686 10.072 20.6386 10.0002 20.3869 10.0002H19.4894C19.2377 10.0002 19.0008 10.0766 18.7786 10.2293C18.5563 10.3821 18.4036 10.5789 18.3202 10.8197L11.6673 29.4585ZM14.9173 22.7085L17.7786 14.5418L20.5977 22.7085H14.9173ZM6.1119 36.6668C5.3619 36.6668 4.71135 36.3914 4.16023 35.8406C3.6094 35.2895 3.33398 34.6389 3.33398 33.8889V6.11141C3.33398 5.36141 3.6094 4.71086 4.16023 4.15975C4.71135 3.60891 5.3619 3.3335 6.1119 3.3335H33.8894C34.6394 3.3335 35.29 3.60891 35.8411 4.15975C36.3919 4.71086 36.6673 5.36141 36.6673 6.11141V33.8889C36.6673 34.6389 36.3919 35.2895 35.8411 35.8406C35.29 36.3914 34.6394 36.6668 33.8894 36.6668H6.1119ZM6.1119 33.8889H33.8894V6.11141H6.1119V33.8889Z" fill="#1C1B1F"/>
</g>
</svg>
